<svg width="104" height="63" viewBox="0 0 104 63" fill="none" xmlns="http://www.w3.org/2000/svg">
<path d="M22 43.5H13V49.5H22V43.5Z" fill="#1F8882"/>
<path d="M13 49.5V49.9193C13 50.7922 13.7809 51.5 14.7439 51.5H20.2561C21.2191 51.5 22 50.7922 22 49.9193V49.5H13Z" fill="white"/>
<path d="M17.5 53.5C18.8804 53.5 20 52.6043 20 51.5H15C15 52.6049 16.1189 53.5 17.5 53.5Z" fill="#1F8882"/>
<path d="M22 43.5H17V49.5H22V43.5Z" fill="#1F8882"/>
<path d="M17 51.5V53.5C18.6565 53.5 20 52.6043 20 51.5H17Z" fill="#1F8882"/>
<path d="M17 49.5V51.5H20.0617C21.1321 51.5 22 50.7922 22 49.9193V49.5H17Z" fill="white"/>
<path d="M28 27.5022C28 21.4256 23.2992 16.5 17.5 16.5C11.7008 16.5 7 21.4256 7 27.5022C7 33.5243 9.34014 35.2858 11.6713 38.7043C13.2077 40.9565 13.2077 43.5 13.2077 43.5H21.7922C21.7922 43.5 21.7892 40.9565 23.3286 38.7043C25.6623 35.2876 28 33.5243 28 27.5022Z" fill="#1F8882"/>
<path d="M17 16.5V43.5H21.4966C21.4966 43.5 21.4935 40.9565 23.1062 38.7043C25.5515 35.2882 28 33.5243 28 27.5022C28 21.4256 23.0747 16.5 17 16.5Z" fill="#FF6680"/>
<path d="M21 43.5V40.2123C21 39.2667 20.1145 38.5 19.0225 38.5H15.9775C14.8855 38.5 14 39.2667 14 40.2123V43.4994H21V43.5Z" fill="#F7BF00"/>
<path d="M18.7408 38.5H17V43.5H21V40.2125C21 39.2668 19.9882 38.5 18.7408 38.5Z" fill="#FDF35A"/>
<path d="M18.4222 43.5C18.4222 43.5 18.406 36.1753 18.406 33.7373C18.406 32.9417 18.6316 32.1114 18.8499 31.3082C19.1022 30.382 19.3622 29.4237 19.0918 28.971C18.8922 28.6375 18.3424 28.4604 17.5034 28.4604C16.6659 28.4604 16.1161 28.6394 15.9129 28.9773C15.6341 29.4426 15.8962 30.4148 16.15 31.3554C16.3637 32.1467 16.5841 32.9637 16.5841 33.7367V43.4982H15.7904V33.7373C15.7904 33.1175 15.5898 32.3735 15.3954 31.6536C15.0801 30.4847 14.7544 29.2748 15.2703 28.4136C15.6445 27.7906 16.3537 27.5 17.5034 27.5C18.6555 27.5 19.3649 27.7881 19.7349 28.4079C20.2435 29.2578 19.9188 30.4525 19.6046 31.6081C19.406 32.3394 19.2002 33.0954 19.2002 33.7372C19.2002 36.1745 19.2164 43.4974 19.2164 43.4974L18.4222 43.5Z" fill="white"/>
<path d="M5.2491 31.8796C5.19513 31.5632 4.89621 31.3515 4.58436 31.4059L0.535144 32.1136C0.222101 32.1682 0.0131664 32.4691 0.0670156 32.7854C0.11536 33.0678 0.358638 33.2677 0.633149 33.2677L0.731754 33.259L4.78097 32.5513C5.09354 32.4964 5.30307 32.1954 5.2491 31.8796ZM10.4239 11.9582C10.2909 11.6672 9.94906 11.5396 9.66043 11.6746C9.37251 11.8089 9.24627 12.1544 9.38041 12.4461L11.1045 16.2151C11.2019 16.4275 11.4097 16.5526 11.6265 16.5526C11.7068 16.5526 11.7895 16.5353 11.8673 16.4987C12.1552 16.3644 12.2814 16.0189 12.1473 15.7272L10.4239 11.9582ZM6.63805 20.5186C6.74587 20.6108 6.87762 20.6561 7.00877 20.6561C7.17295 20.6561 7.33534 20.586 7.44866 20.4499C7.65389 20.2046 7.62325 19.838 7.38069 19.6306L4.24188 16.9508C3.99801 16.7428 3.6353 16.775 3.43127 17.0195C3.22605 17.2648 3.25668 17.6313 3.49924 17.8387L6.63805 20.5186ZM0.424215 25.2387L4.38955 26.3267L4.54092 26.3471C4.7933 26.3471 5.02557 26.1768 5.09545 25.918C5.17874 25.6084 4.99745 25.2889 4.6911 25.2054L0.72577 24.1174C0.420027 24.0332 0.103872 24.2165 0.0205856 24.526C-0.0634192 24.8356 0.117275 25.1546 0.424215 25.2387ZM7.08105 37.071L3.70698 39.4418C3.44659 39.6251 3.38161 39.9874 3.56302 40.2505C3.67455 40.4134 3.85405 40.5 4.03606 40.5C4.14938 40.5 4.26342 40.4659 4.36382 40.396L7.73789 38.0252C7.99828 37.8418 8.06326 37.4796 7.88185 37.2164C7.70044 36.9521 7.34264 36.8883 7.08105 37.071ZM17.4998 9.5C17.2131 9.5254 16.9674 9.76497 16.9661 10.0703L16.9526 14.2233C16.9514 14.5347 17.1945 14.7849 17.4997 14.801C17.8048 14.7855 18.048 14.5347 18.0468 14.2233L18.0333 10.0703C18.0322 9.76497 17.7859 9.5254 17.4998 9.5ZM27.9907 20.6561C28.1218 20.6561 28.2535 20.6114 28.3614 20.5186L31.5002 17.8393C31.7429 17.6319 31.7728 17.2654 31.5682 17.0201C31.3642 16.7756 31.0015 16.7433 30.7576 16.9514L27.6188 19.6312C27.3761 19.8387 27.3462 20.2052 27.5508 20.4505C27.6641 20.5862 27.8265 20.6561 27.9907 20.6561ZM29.9041 25.918C29.974 26.1768 30.2056 26.3471 30.4587 26.3471L30.61 26.3267L34.5754 25.2387C34.8817 25.1546 35.0631 24.8356 34.9797 24.5254C34.8958 24.2158 34.5797 24.0325 34.2745 24.1168L30.3092 25.2047C30.0015 25.2895 29.8208 25.6084 29.9041 25.918ZM34.4643 32.1138L30.4151 31.406C30.1027 31.3515 29.8042 31.5632 29.7504 31.8797C29.6964 32.1961 29.9059 32.4964 30.2185 32.5515L34.2677 33.2593L34.3663 33.268C34.6408 33.268 34.884 33.0679 34.9324 32.7857C34.9863 32.4691 34.7768 32.1682 34.4643 32.1138ZM27.9178 37.071C27.6562 36.8883 27.2984 36.9521 27.117 37.2164C26.9356 37.4796 27 37.8424 27.261 38.0252L30.635 40.396C30.7356 40.466 30.8495 40.5 30.9628 40.5C31.1448 40.5 31.3237 40.4127 31.4358 40.2505C31.6173 39.9874 31.5529 39.6251 31.2919 39.4418L27.9178 37.071ZM25.3378 11.6747C25.0492 11.5397 24.708 11.6673 24.5744 11.9583L22.8502 15.728C22.7167 16.019 22.8422 16.3645 23.1303 16.4996C23.208 16.5361 23.2907 16.5534 23.371 16.5534C23.5886 16.5534 23.7962 16.4284 23.893 16.216L25.6171 12.447C25.752 12.1546 25.6263 11.8097 25.3378 11.6747Z" fill="#5E6086"/>
<path d="M48.4013 9.81818V20H46.5419L42.1122 13.5916H42.0376V20H39.8849V9.81818H41.7741L46.169 16.2216H46.2585V9.81818H48.4013ZM59.5364 14.9091C59.5364 16.0194 59.3259 16.964 58.905 17.7429C58.4874 18.5218 57.9173 19.1167 57.1948 19.5277C56.4756 19.9354 55.6668 20.1392 54.7686 20.1392C53.8638 20.1392 53.0518 19.9337 52.3326 19.5227C51.6133 19.1117 51.0449 18.5168 50.6273 17.7379C50.2097 16.959 50.0009 16.0161 50.0009 14.9091C50.0009 13.7988 50.2097 12.8542 50.6273 12.0753C51.0449 11.2964 51.6133 10.7031 52.3326 10.2955C53.0518 9.88447 53.8638 9.67898 54.7686 9.67898C55.6668 9.67898 56.4756 9.88447 57.1948 10.2955C57.9173 10.7031 58.4874 11.2964 58.905 12.0753C59.3259 12.8542 59.5364 13.7988 59.5364 14.9091ZM57.3539 14.9091C57.3539 14.1899 57.2462 13.5833 57.0307 13.0895C56.8186 12.5956 56.5186 12.2211 56.1309 11.9659C55.7431 11.7107 55.289 11.5831 54.7686 11.5831C54.2483 11.5831 53.7942 11.7107 53.4064 11.9659C53.0186 12.2211 52.717 12.5956 52.5016 13.0895C52.2895 13.5833 52.1834 14.1899 52.1834 14.9091C52.1834 15.6283 52.2895 16.2348 52.5016 16.7287C52.717 17.2225 53.0186 17.5971 53.4064 17.8523C53.7942 18.1075 54.2483 18.2351 54.7686 18.2351C55.289 18.2351 55.7431 18.1075 56.1309 17.8523C56.5186 17.5971 56.8186 17.2225 57.0307 16.7287C57.2462 16.2348 57.3539 15.6283 57.3539 14.9091ZM61.131 20V9.81818H63.2837V18.2251H67.6488V20H61.131ZM71.0891 20H68.7823L72.2972 9.81818H75.0714L78.5813 20H76.2745L73.7241 12.1449H73.6445L71.0891 20ZM70.945 15.9979H76.3938V17.6783H70.945V15.9979Z" fill="#1F8882"/>
<path d="M39.8849 37V26.8182H42.0376V31.0192H46.4077V26.8182H48.5554V37H46.4077V32.794H42.0376V37H39.8849ZM56.6193 26.8182H58.772V33.4304C58.772 34.1728 58.5947 34.8224 58.2401 35.3793C57.8887 35.9361 57.3965 36.3703 56.7635 36.6818C56.1304 36.9901 55.393 37.1442 54.5511 37.1442C53.706 37.1442 52.9669 36.9901 52.3338 36.6818C51.7008 36.3703 51.2086 35.9361 50.8572 35.3793C50.5059 34.8224 50.3303 34.1728 50.3303 33.4304V26.8182H52.483V33.2464C52.483 33.6342 52.5675 33.9789 52.7365 34.2805C52.9089 34.5821 53.1508 34.8191 53.4624 34.9915C53.7739 35.1638 54.1368 35.25 54.5511 35.25C54.9688 35.25 55.3317 35.1638 55.6399 34.9915C55.9515 34.8191 56.1918 34.5821 56.3608 34.2805C56.5331 33.9789 56.6193 33.6342 56.6193 33.2464V26.8182ZM60.5431 37V26.8182H64.6199C65.3689 26.8182 65.9937 26.9292 66.4941 27.1513C66.9946 27.3733 67.3708 27.6816 67.6227 28.076C67.8746 28.4671 68.0005 28.9179 68.0005 29.4283C68.0005 29.826 67.921 30.1757 67.7619 30.4773C67.6028 30.7756 67.3841 31.0208 67.1056 31.2131C66.8306 31.402 66.5157 31.5362 66.161 31.6158V31.7152C66.5488 31.7318 66.9118 31.8411 67.2498 32.0433C67.5912 32.2455 67.868 32.5289 68.0801 32.8935C68.2922 33.2547 68.3983 33.6856 68.3983 34.1861C68.3983 34.7263 68.264 35.2086 67.9956 35.6328C67.7304 36.0537 67.3377 36.3868 66.8173 36.6321C66.2969 36.8774 65.6556 37 64.8933 37H60.5431ZM62.6958 35.2401H64.4508C65.0507 35.2401 65.4882 35.1257 65.7633 34.897C66.0384 34.665 66.176 34.3568 66.176 33.9723C66.176 33.6906 66.108 33.442 65.9721 33.2266C65.8362 33.0111 65.6423 32.8421 65.3904 32.7195C65.1419 32.5968 64.8452 32.5355 64.5005 32.5355H62.6958V35.2401ZM62.6958 31.0788H64.2917C64.5867 31.0788 64.8485 31.0275 65.0772 30.9247C65.3092 30.8187 65.4915 30.6695 65.6241 30.4773C65.76 30.285 65.8279 30.0547 65.8279 29.7862C65.8279 29.4183 65.697 29.1217 65.4352 28.8963C65.1767 28.6709 64.8088 28.5582 64.3315 28.5582H62.6958V31.0788ZM41.6399 54H39.3331L42.848 43.8182H45.6222L49.1321 54H46.8253L44.2749 46.1449H44.1953L41.6399 54ZM41.4957 49.9979H46.9446V51.6783H41.4957V49.9979ZM50.3576 54V43.8182H57.0991V45.593H52.5103V48.0192H56.6516V49.794H52.5103V54H50.3576ZM58.5471 54V43.8182H62.5641C63.333 43.8182 63.9893 43.9557 64.5328 44.2308C65.0797 44.5026 65.4957 44.8887 65.7807 45.3892C66.0691 45.8864 66.2132 46.4714 66.2132 47.1442C66.2132 47.8203 66.0674 48.402 65.7757 48.8892C65.4841 49.3731 65.0615 49.7443 64.508 50.0028C63.9578 50.2614 63.2916 50.3906 62.5094 50.3906H59.8198V48.6605H62.1614C62.5724 48.6605 62.9138 48.6042 63.1855 48.4915C63.4573 48.3788 63.6595 48.2098 63.7921 47.9844C63.928 47.759 63.9959 47.4789 63.9959 47.1442C63.9959 46.8061 63.928 46.5211 63.7921 46.2891C63.6595 46.0571 63.4557 45.8814 63.1806 45.7621C62.9088 45.6394 62.5658 45.5781 62.1515 45.5781H60.6998V54H58.5471ZM64.0456 49.3665L66.5762 54H64.1998L61.7239 49.3665H64.0456ZM69.8873 43.8182V54H67.7346V43.8182H69.8873ZM80.642 47.3828H78.4645C78.4247 47.1011 78.3435 46.8509 78.2209 46.6321C78.0982 46.41 77.9408 46.2211 77.7486 46.0653C77.5563 45.9096 77.3343 45.7902 77.0824 45.7074C76.8338 45.6245 76.5637 45.5831 76.272 45.5831C75.745 45.5831 75.286 45.714 74.8949 45.9759C74.5038 46.2344 74.2005 46.6122 73.9851 47.1094C73.7696 47.6032 73.6619 48.2031 73.6619 48.9091C73.6619 49.6349 73.7696 50.2448 73.9851 50.7386C74.2038 51.2325 74.5088 51.6054 74.8999 51.8572C75.291 52.1091 75.7434 52.2351 76.2571 52.2351C76.5455 52.2351 76.8123 52.197 77.0575 52.1207C77.3061 52.0445 77.5265 51.9335 77.7188 51.7876C77.911 51.6385 78.0701 51.4579 78.196 51.2457C78.3253 51.0336 78.4148 50.7917 78.4645 50.5199L80.642 50.5298C80.5857 50.9972 80.4448 51.4479 80.2195 51.8821C79.9974 52.313 79.6974 52.6991 79.3196 53.0405C78.9451 53.3786 78.4976 53.647 77.9773 53.8459C77.4602 54.0414 76.8752 54.1392 76.2223 54.1392C75.3142 54.1392 74.5021 53.9337 73.7862 53.5227C73.0736 53.1117 72.5102 52.5168 72.0959 51.7379C71.6849 50.959 71.4794 50.0161 71.4794 48.9091C71.4794 47.7988 71.6882 46.8542 72.1058 46.0753C72.5234 45.2964 73.0902 44.7031 73.8061 44.2955C74.522 43.8845 75.3274 43.679 76.2223 43.679C76.8123 43.679 77.3591 43.7618 77.8629 43.9276C78.37 44.0933 78.8191 44.3352 79.2102 44.6534C79.6013 44.9683 79.9195 45.3544 80.1648 45.8118C80.4134 46.2692 80.5724 46.7929 80.642 47.3828ZM83.7493 54H81.4425L84.9574 43.8182H87.7315L91.2415 54H88.9347L86.3842 46.1449H86.3047L83.7493 54ZM83.6051 49.9979H89.054V51.6783H83.6051V49.9979Z" fill="#1F8882"/>
</svg>
