<svg width="20" height="21" viewBox="0 0 20 21" fill="none" xmlns="http://www.w3.org/2000/svg">
<path d="M8.37499 2.60836L3.35832 5.88336C1.74999 6.93336 1.74999 9.28336 3.35832 10.3334L8.37499 13.6084C9.27499 14.2 10.7583 14.2 11.6583 13.6084L16.65 10.3334C18.25 9.28336 18.25 6.9417 16.65 5.8917L11.6583 2.6167C10.7583 2.0167 9.27499 2.0167 8.37499 2.60836Z" stroke="black" stroke-width="1.5" stroke-linecap="round" stroke-linejoin="round"/>
<path d="M4.69165 11.4L4.68332 15.3084C4.68332 16.3667 5.49999 17.5 6.49999 17.8334L9.15832 18.7167C9.61665 18.8667 10.375 18.8667 10.8417 18.7167L13.5 17.8334C14.5 17.5 15.3167 16.3667 15.3167 15.3084V11.4417" stroke="black" stroke-width="1.5" stroke-linecap="round" stroke-linejoin="round"/>
<path d="M17.8333 13V8" stroke="black" stroke-width="1.5" stroke-linecap="round" stroke-linejoin="round"/>
</svg>
